<mxfile host="app.diagrams.net" modified="2024-01-05T18:37:46.094Z" agent="Mozilla/5.0 (Windows NT 10.0; Win64; x64) AppleWebKit/537.36 (KHTML, like Gecko) Chrome/120.0.0.0 Safari/537.36" version="22.1.17" etag="0-oC8RS_k7w9e1sq8_vz" type="github">
  <diagram name="PÃ¡gina-1" id="1FqC2rpXrMi4vUBvyXnJ">
    <mxGraphModel>
      <root>
        <mxCell id="0" />
        <mxCell id="1" parent="0" />
      </root>
    </mxGraphModel>
  </diagram>
</mxfile>
